<?xml version="1.0" encoding="UTF-8" standalone="no"?>
<svg xmlns="http://www.w3.org/2000/svg" width="376" height="66">
  <g transform="translate(-59.847143,-308.69005)">
    <path d="m 59.847143,374.6913 21,0 1.5,-18.00125 -19.50125,-4.49875 -2.99875,22.5 z" fill="#4c4c4c" />
    <path d="m 63.597143,349.19005 18.75,4.5 4.5,-15.75 -15.75,-8.24875 -7.5,19.49875 z" fill="#4c4c4c" />
    <path d="m 72.595893,326.69005 15,8.25 12.00125,-8.25 -11.25,-12.75 -15.75125,12.75 z" fill="#4c4c4c" />
    <path d="m 156.59589,374.6913 -20.99875,0 -1.50125,-18.00125 19.50125,-4.49875 2.99875,22.5 z" fill="#4c4c4c" />
    <path d="m 152.84589,349.19005 -18.75,4.5 -4.49875,-15.75 15.74875,-8.24875 7.5,19.49875 z" fill="#4c4c4c" />
    <path d="m 143.84589,326.69005 -15,8.25 -11.99875,-8.25 11.25,-12.75 15.74875,12.75 z" fill="#4c4c4c" />
    <path d="m 92.097143,311.69005 11.249997,13.5 10.49875,0 9.75125,-13.5 -9.75125,-3 -10.7625,0 -10.986247,3 z" fill="#4c4c4c" />
    <path d="m 59.847143,374.6913 21,0 1.5,-18.00125 -19.50125,-4.49875 -2.99875,22.5 z" fill="#9c0000" />
    <path d="m 63.597143,349.19005 18.75,4.5 4.5,-15.75 -15.75,-8.24875 -7.5,19.49875 z" fill="#b50808" />
    <path d="m 72.595893,326.69005 15,8.25 12.00125,-8.25 -11.25,-12.75 -15.75125,12.75 z" fill="#c61818" />
    <path d="m 156.59589,374.6913 -20.99875,0 -1.50125,-18.00125 19.50125,-4.49875 2.99875,22.5 z" fill="#9c0000" />
    <path d="m 152.84589,349.19005 -18.75,4.5 -4.49875,-15.75 15.74875,-8.24875 7.5,19.49875 z" fill="#b50808" />
    <path d="m 143.84589,326.69005 -15,8.25 -11.99875,-8.25 11.25,-12.75 15.74875,12.75 z" fill="#c61818" />
    <path d="m 92.097143,311.69005 11.249997,13.5 10.49875,0 9.75125,-13.5 -9.75125,-3 -10.7625,0 -10.986247,3 z" fill="#ce3129" />
    <path d="m 122.375,18.71875 0,47.25 8.15625,0 0,-16.875 15.375,16.875 7.34375,0 0,-3.3125 -13.40625,-13.9375 c 3.49368,-0.44216 6.25,-2.13595 8.28125,-5.0625 2.03119,-2.9265 3.08122,-6.23283 3.125,-9.9375 0.0656,-4.2999 -1.32195,-7.85624 -4.125,-10.65625 -2.80312,-2.79992 -7.41573,-4.24371 -13.875,-4.34375 l -10.875,0 z m 37.71875,0 0,47.25 26.25,0 0,-7.4375 -18.09375,0 0,-13.5 13.28125,0 0,-7.34375 -13.28125,0 0,-11.6875 17.34375,0 0,-7.28125 -25.5,0 z m 34.125,0 0,47.25 13.5,0 c 4.42862,-0.0741 7.99769,-1.23707 10.6875,-3.5 2.68975,-2.26293 4.63725,-5.18707 5.84375,-8.75 1.20643,-3.5629 1.77126,-7.33846 1.75,-11.3125 0.0338,-3.92862 -0.46232,-7.6602 -1.53125,-11.25 -1.06901,-3.58973 -2.8915,-6.53726 -5.46875,-8.84375 -2.57731,-2.30641 -6.13388,-3.515 -10.625,-3.59375 l -14.15625,0 z m -63.6875,7.0625 2.71875,0 c 3.389,0.0235 5.83281,0.711 7.375,2.09375 1.54214,1.38284 2.30466,3.32037 2.28125,5.78125 -0.005,2.55312 -0.66723,4.71568 -2.03125,6.5 -1.36407,1.78438 -3.39536,2.70314 -6.0625,2.78125 -1.03125,-0.0406 -1.99378,-0.18435 -2.875,-0.46875 -0.88125,-0.28435 -1.35002,-0.45935 -1.40625,-0.5 l 0,-16.1875 z m 71.78125,0 5.78125,0 c 2.85828,0.0866 4.98333,1.05585 6.375,2.90625 1.39162,1.85048 2.29372,4.0496 2.71875,6.625 0.42496,2.57545 0.60414,4.98848 0.5625,7.25 0.037,2.32684 -0.1711,4.75097 -0.65625,7.25 -0.48521,2.49905 -1.45445,4.62596 -2.90625,6.375 -1.45186,1.74906 -3.60585,2.64191 -6.46875,2.71875 l -5.40625,0 0,-33.125 z" transform="translate(59.847143,308.69005)" fill="#9c0000" />
    <path d="m 235.6875,18.71875 0,47.25 8.1875,0 0,-26.03125 -0.625,-5.46875 10.96875,31.5 6.75,0 10.9375,-31.5 -0.59375,5.46875 0,26.03125 8.1875,0 0,-47.25 -9.625,0 -11.25,32.03125 c -0.3719,1.12657 -0.61565,2.08909 -0.78125,2.90625 -0.16565,0.81719 -0.25316,1.2422 -0.25,1.28125 0.003,-0.0344 -0.0845,-0.44688 -0.25,-1.25 -0.16565,-0.80311 -0.44066,-1.77812 -0.8125,-2.9375 l -11.25,-32.03125 -9.59375,0 z m 54.59375,0 0,47.25 8.09375,0 0,-47.25 -8.09375,0 z m 18.53125,0 0,47.25 8.1875,0 0,-26.84375 c -0.0219,-1.63745 -0.12814,-3.08749 -0.28125,-4.3125 -0.15314,-1.22496 -0.22814,-1.84372 -0.25,-1.90625 l 14.90625,33.0625 7.875,0 0,-47.25 -8.15625,0 c -3e-5,7.45053 -3e-5,13.02177 0,16.71875 -3e-5,3.69705 -3e-5,6.28227 0,7.71875 -3e-5,1.43652 -3e-5,2.48733 0,3.15625 -3e-5,0.66896 -3e-5,1.69945 0,3.09375 -0.0157,-0.1156 -0.2469,-0.92187 -0.65625,-2.40625 -0.40939,-1.48433 -0.91566,-2.97187 -1.53125,-4.4375 l -10.5,-23.84375 -9.59375,0 z m 41.40625,0 0,47.25 26.25,0 0,-7.4375 -18.09375,0 0,-13.5 13.28125,0 0,-7.34375 -13.28125,0 0,-11.6875 17.34375,0 0,-7.28125 -25.5,0 z" transform="translate(59.847143,308.69005)" fill="#ce3129" />
  </g>
</svg>
